<svg width="40" height="25" viewBox="0 0 40 25" fill="none" xmlns="http://www.w3.org/2000/svg">
<g clip-path="url(#clip0_1_6034)">
<path opacity="0.07" d="M36.8421 0H3.15789C1.36842 0 0 1.35417 0 3.125V21.875C0 23.6458 1.47368 25 3.15789 25H36.8421C38.6316 25 40 23.6458 40 21.875V3.125C40 1.35417 38.5263 0 36.8421 0Z" fill="#262322"/>
<path d="M36.8422 1.04199C38.0001 1.04199 38.9475 1.97949 38.9475 3.12533V21.8753C38.9475 23.0212 38.0001 23.9587 36.8422 23.9587H3.158C2.0001 23.9587 1.05273 23.0212 1.05273 21.8753V3.12533C1.05273 1.97949 2.0001 1.04199 3.158 1.04199H36.8422Z" fill="#006FCF"/>
<path d="M9.44357 10.6955L10.2583 12.6497H8.63515L9.44357 10.6955ZM26.3646 10.7768H23.2309V11.6382H26.3141V12.9288H23.2373V13.8893H26.3709V14.659L28.5573 12.3205L26.3709 9.88301L26.3646 10.7768ZM11.5615 8.33926H15.7667L16.7004 10.3549L17.5657 8.33301H28.4815L29.6162 9.57259L30.7899 8.33301H35.8036L32.0994 12.3455L35.7657 16.333H30.6773L29.5425 15.0934L28.3583 16.333H10.5583L10.0383 15.0934H8.84883L8.32778 16.333H4.21094L7.66988 8.33301H11.2804L11.5615 8.33926ZM20.6804 9.46217H18.3236L16.7446 13.1455L15.0341 9.46217H12.6951V14.4726L10.5267 9.46217H8.42883L5.92146 15.2038H7.55831L8.07831 13.9643H10.8109L11.3309 15.2038H14.1941V11.1049L16.0373 15.2101H17.2899L19.1215 11.1174V15.2111H20.6562L20.6815 9.46113L20.6804 9.46217ZM30.512 12.3455L33.1762 9.46217H31.2583L29.573 11.2601L27.9436 9.46217H21.7394V15.2101H27.8551L29.5541 13.3997L31.1836 15.2101H33.1573L30.513 12.3455H30.512Z" fill="white"/>
</g>
<defs>
<clipPath id="clip0_1_6034">
<rect width="40" height="25" fill="white"/>
</clipPath>
</defs>
</svg>
