<svg width="40" height="25" viewBox="0 0 40 25" fill="none" xmlns="http://www.w3.org/2000/svg">
<g clip-path="url(#clip0_1_6039)">
<path d="M36.1955 0H3.80154C3.6666 0 3.53142 0 3.39671 0.000707781C3.28299 0.00165149 3.16951 0.00283112 3.05579 0.00589817C2.80808 0.0125041 2.55823 0.0271316 2.31362 0.0705422C2.0683 0.112134 1.83062 0.189661 1.6084 0.300571C1.16166 0.525428 0.798537 0.884765 0.571313 1.32685C0.459035 1.54685 0.380683 1.78224 0.338863 2.0252C0.294518 2.26749 0.279975 2.51451 0.2733 2.7594C0.270394 2.87184 0.268646 2.9843 0.268055 3.09678C0.267578 3.22984 0.267578 3.36337 0.267578 3.49714V21.5026C0.267578 21.6364 0.267578 21.7697 0.268055 21.9035C0.26877 22.0158 0.270201 22.1283 0.2733 22.2408C0.279975 22.4853 0.294757 22.7325 0.338863 22.9746C0.380597 23.2175 0.458869 23.4529 0.571075 23.6729C0.683887 23.8926 0.83114 24.0933 1.00737 24.2674C1.18329 24.4419 1.38608 24.5876 1.60816 24.6992C1.83393 24.8131 2.06519 24.8856 2.31385 24.9297C2.55823 24.9729 2.80808 24.9875 3.05579 24.9941C3.16951 24.9967 3.28299 24.9981 3.39671 24.9988C3.53142 24.9998 3.6666 24.9998 3.80154 24.9998H36.1955C36.3302 24.9998 36.4654 24.9998 36.6001 24.9988C36.7136 24.9983 36.8271 24.9967 36.9413 24.9941C37.1885 24.9875 37.4384 24.9729 37.6835 24.9297C37.9288 24.8881 38.1665 24.8104 38.3887 24.6992C38.8352 24.474 39.1982 24.1148 39.4258 23.6729C39.5409 23.4495 39.6139 23.2206 39.658 22.9746C39.7023 22.7325 39.7166 22.4853 39.7233 22.2408C39.7264 22.1283 39.7281 22.0158 39.7285 21.9035C39.7295 21.7697 39.7295 21.6364 39.7295 21.5026V3.49738C39.7295 3.36361 39.7295 3.23008 39.7285 3.09654C39.7281 2.98415 39.7263 2.87176 39.7233 2.7594C39.7166 2.51451 39.7023 2.26749 39.658 2.0252C39.6165 1.7822 39.5382 1.54677 39.4258 1.32685C39.1984 0.884842 38.8354 0.525534 38.3887 0.300571C38.1664 0.189775 37.9288 0.112329 37.6835 0.0707781C37.4384 0.0271316 37.1885 0.0127401 36.9413 0.0061341C36.8276 0.00327638 36.7139 0.00154617 36.6001 0.000943708C36.4654 0 36.3302 0 36.1955 0Z" fill="#262322"/>
<path d="M36.1972 0.833008L36.5959 0.833716C36.7036 0.834423 36.8116 0.835603 36.9201 0.838434C37.1092 0.843625 37.3299 0.853769 37.5359 0.890338C37.7147 0.922188 37.8649 0.970553 38.0089 1.04322C38.2971 1.18821 38.5312 1.42014 38.6774 1.70547C38.7504 1.84702 38.799 1.99471 38.8312 2.17331C38.8679 2.37479 38.8782 2.59397 38.8832 2.782C38.8863 2.88817 38.8877 2.99433 38.8879 3.10286C38.8891 3.23427 38.8891 3.36545 38.8891 3.49709V21.5026C38.8891 21.6342 38.8891 21.7654 38.8882 21.8994C38.8877 22.0056 38.8863 22.1117 38.8834 22.2179C38.8782 22.4057 38.8679 22.6249 38.8307 22.8287C38.8037 22.9909 38.7518 23.148 38.6769 23.2947C38.5304 23.5801 38.296 23.812 38.0075 23.9569C37.8644 24.0291 37.7147 24.0775 37.5376 24.1091C37.3275 24.1461 37.0972 24.1563 36.9239 24.161C36.815 24.1634 36.7065 24.165 36.5951 24.1655C36.4628 24.1664 36.3298 24.1664 36.1972 24.1664H3.79797C3.66685 24.1664 3.53572 24.1664 3.40221 24.1655C3.29492 24.165 3.18763 24.1636 3.08036 24.1612C2.90298 24.1565 2.67268 24.1461 2.46431 24.1093C2.29956 24.0822 2.13992 24.0305 1.99082 23.956C1.84781 23.8841 1.71727 23.7901 1.60412 23.6776C1.49062 23.5655 1.39582 23.4362 1.32327 23.2947C1.24835 23.1471 1.19643 22.9893 1.16926 22.8264C1.13207 22.6227 1.12158 22.4045 1.11681 22.2181C1.11412 22.1116 1.11253 22.005 1.11204 21.8985L1.11133 21.5854V3.41452L1.1118 3.10192C1.1123 2.99519 1.11389 2.88846 1.11657 2.78176C1.12182 2.59491 1.13207 2.37668 1.1695 2.17142C1.19672 2.00883 1.24865 1.85126 1.32351 1.70405C1.39599 1.56297 1.4904 1.43415 1.60484 1.32114C1.71826 1.20872 1.84893 1.11477 1.99202 1.04275C2.14075 0.968802 2.29988 0.917424 2.46407 0.890338C2.67029 0.853769 2.8913 0.843625 3.0806 0.838434C3.18836 0.835603 3.29636 0.834423 3.40341 0.833716L3.80322 0.833008H36.1972Z" fill="white"/>
<path d="M10.6425 8.43865C10.9772 8.02459 11.2042 7.46851 11.1443 6.90039C10.6546 6.92446 10.0572 7.22007 9.71101 7.6346C9.40036 7.98944 9.12547 8.56865 9.19699 9.11294C9.74677 9.16012 10.2961 8.84115 10.6425 8.43865Z" fill="#262322"/>
<path d="M11.1374 9.21899C10.3387 9.1718 9.66018 9.66725 9.27896 9.66725C8.8975 9.66725 8.31362 9.24258 7.68207 9.25414C6.86026 9.26594 6.09781 9.726 5.68059 10.4574C4.82278 11.9201 5.4541 14.0907 6.28855 15.2821C6.69361 15.872 7.18188 16.5208 7.82512 16.4974C8.43307 16.4738 8.67124 16.1081 9.40985 16.1081C10.1482 16.1081 10.3628 16.4974 11.0063 16.4856C11.6733 16.4738 12.0906 15.8958 12.4956 15.306C12.9605 14.6336 13.1505 13.9848 13.1625 13.9494C13.1505 13.9376 11.876 13.4537 11.8641 12.0027C11.8521 10.7877 12.8649 10.2097 12.9126 10.174C12.3407 9.33695 11.4471 9.24258 11.1371 9.21899" fill="#262322"/>
<path d="M19.1006 7.5752C20.8358 7.5752 22.0443 8.75885 22.0443 10.4821C22.0443 12.2114 20.811 13.4012 19.0572 13.4012H17.1361V16.4249H15.748V7.5752H19.1006ZM17.1361 12.2482H18.7287C19.9374 12.2482 20.625 11.6044 20.625 10.4882C20.625 9.37227 19.9372 8.73432 18.7349 8.73432H17.1361V12.2482Z" fill="#262322"/>
<path d="M22.3848 14.5907C22.3848 13.4562 23.2585 12.8062 24.8697 12.708L26.5987 12.6037V12.113C26.5987 11.3958 26.1216 11.0032 25.2727 11.0032C24.5722 11.0032 24.0639 11.3587 23.959 11.9045H22.7069C22.7443 10.7578 23.8348 9.92383 25.3099 9.92383C26.8963 9.92383 27.9312 10.7456 27.9312 12.0212V16.4244H26.6485V15.3634H26.6175C26.2518 16.0563 25.446 16.4916 24.5722 16.4916C23.2833 16.4916 22.3848 15.7315 22.3848 14.5907ZM26.5987 14.0205V13.5236L25.0557 13.6218C24.1879 13.677 23.7359 13.9957 23.7359 14.5537C23.7359 15.0935 24.2067 15.4432 24.9441 15.4432C25.8859 15.4432 26.5987 14.8481 26.5987 14.0205Z" fill="#262322"/>
<path d="M29.1134 18.7918V17.7311C29.2002 17.7431 29.4107 17.7554 29.5223 17.7554C30.1357 17.7554 30.4829 17.4982 30.6936 16.8355L30.8176 16.4431L28.4688 10.0039H29.9188L31.555 15.2288H31.586L33.222 10.0039H34.6351L32.1994 16.768C31.6415 18.3197 31.0033 18.8288 29.6525 18.8288C29.5471 18.8288 29.2062 18.8166 29.1134 18.7918Z" fill="#262322"/>
</g>
<defs>
<clipPath id="clip0_1_6039">
<rect width="40" height="25" fill="white"/>
</clipPath>
</defs>
</svg>
