<svg width="16" height="16" viewBox="0 0 16 16" fill="none" xmlns="http://www.w3.org/2000/svg">
<g clip-path="url(#clip0_1_5733)">
<path d="M8.01026 15.1999C8.00346 15.2001 7.9969 15.2001 7.9901 15.1999C7.91302 15.1999 7.835 15.1756 7.76723 15.1245C7.55329 14.9638 2.50289 11.1501 0.642037 7.9333C0.639539 7.92894 0.637216 7.92463 0.634718 7.92027C0.219454 7.19107 0 6.35381 0 5.4978C0 2.90751 1.99067 0.800049 4.43741 0.800049C5.85409 0.800049 7.1695 1.51265 8 2.69624C8.83047 1.51272 10.1461 0.800049 11.5626 0.800049C14.0093 0.800049 16 2.90751 16 5.4978C16 6.35374 15.7805 7.19091 15.3653 7.92027C15.363 7.92463 15.3606 7.92894 15.358 7.9333C13.4974 11.1503 8.44691 14.9638 8.23277 15.1245C8.16545 15.1756 8.08744 15.1999 8.01018 15.1999H8.01026ZM1.30693 7.51784C2.8805 10.2279 7.01321 13.5279 8.00029 14.2942C8.98742 13.5278 13.1201 10.2279 14.6937 7.518C14.6955 7.51498 14.6972 7.51179 14.699 7.50853C15.0455 6.90422 15.2288 6.20902 15.2288 5.49773C15.2288 3.35768 13.5843 1.61686 11.563 1.61686C10.2176 1.61686 8.98244 2.39519 8.33946 3.64829C8.27202 3.77995 8.14173 3.86174 8.0004 3.86174C7.85908 3.86174 7.72878 3.77995 7.66135 3.64829C7.01845 2.39521 5.78325 1.61686 4.43779 1.61686C2.41634 1.61686 0.772 3.35784 0.772 5.49773C0.772 6.20898 0.955082 6.90417 1.30181 7.50853C1.30326 7.5116 1.30506 7.5148 1.30681 7.51781L1.30693 7.51784Z" fill="black"/>
</g>
<defs>
<clipPath id="clip0_1_5733">
<rect width="16" height="16" fill="white"/>
</clipPath>
</defs>
</svg>
