<svg width="40" height="25" viewBox="0 0 40 25" fill="none" xmlns="http://www.w3.org/2000/svg">
<g clip-path="url(#clip0_1_6056)">
<path opacity="0.07" d="M36.8421 0H3.15789C1.36842 0 0 1.35417 0 3.125V21.875C0 23.6458 1.47368 25 3.15789 25H36.8421C38.6316 25 40 23.6458 40 21.875V3.125C40 1.35417 38.5263 0 36.8421 0Z" fill="#262322"/>
<path d="M36.8422 1.04199C38.0001 1.04199 38.9475 1.97949 38.9475 3.12533V21.8753C38.9475 23.0212 38.0001 23.9587 36.8422 23.9587H3.158C2.0001 23.9587 1.05273 23.0212 1.05273 21.8753V3.12533C1.05273 1.97949 2.0001 1.04199 3.158 1.04199H36.8422Z" fill="white"/>
<path d="M15.7904 19.7915C19.8599 19.7915 23.1589 16.5269 23.1589 12.4997C23.1589 8.47263 19.8599 5.20801 15.7904 5.20801C11.7209 5.20801 8.42188 8.47263 8.42188 12.4997C8.42188 16.5269 11.7209 19.7915 15.7904 19.7915Z" fill="#E90015"/>
<path d="M24.2103 19.7915C28.2798 19.7915 31.5788 16.5269 31.5788 12.4997C31.5788 8.47263 28.2798 5.20801 24.2103 5.20801C20.1408 5.20801 16.8418 8.47263 16.8418 12.4997C16.8418 16.5269 20.1408 19.7915 24.2103 19.7915Z" fill="#0090DB"/>
<path d="M23.1576 12.5001C23.1576 10 21.8945 7.81251 19.9997 6.5625C18.105 7.91668 16.8418 10.1042 16.8418 12.5001C16.8418 14.8959 18.105 17.1876 19.9997 18.4376C21.8945 17.1876 23.1576 15.0001 23.1576 12.5001Z" fill="#6160B6"/>
</g>
<defs>
<clipPath id="clip0_1_6056">
<rect width="40" height="25" fill="white"/>
</clipPath>
</defs>
</svg>
