<svg width="255" height="22" viewBox="0 0 255 22" fill="none" xmlns="http://www.w3.org/2000/svg">
<g clip-path="url(#clip0_1_5562)">
<path d="M10.6096 3.69141L12.2667 8.79153H17.6293L13.2909 11.9436L14.948 17.0438L10.6096 13.8917L6.27114 17.0438L7.92828 11.9436L3.58984 8.79153H8.95246L10.6096 3.69141Z" fill="#FFCC00"/>
<path d="M35.3674 3.69141L37.0245 8.79153H42.3872L38.0487 11.9436L39.7059 17.0438L35.3674 13.8917L31.029 17.0438L32.6861 11.9436L28.3477 8.79153H33.7103L35.3674 3.69141Z" fill="#FFCC00"/>
<path d="M60.1231 3.69141L61.7806 8.79153H67.1429L62.8045 11.9436L64.4615 17.0438L60.1231 13.8917L55.7848 17.0438L57.442 11.9436L53.1035 8.79153H58.4661L60.1231 3.69141Z" fill="#FFCC00"/>
<path d="M84.8811 3.69141L86.5387 8.79153H91.901L87.5626 11.9436L89.2195 17.0438L84.8811 13.8917L80.5428 17.0438L82.2003 11.9436L77.8613 8.79153H83.2242L84.8811 3.69141Z" fill="#FFCC00"/>
<path d="M109.639 3.69141L111.297 8.79153H116.659L112.32 11.9436L113.977 17.0438L109.639 13.8917L105.301 17.0438L106.958 11.9436L102.619 8.79153H107.982L109.639 3.69141Z" fill="#FFCC00"/>
</g>
<defs>
<clipPath id="clip0_1_5562">
<rect width="120.249" height="21.2204" fill="white"/>
</clipPath>
</defs>
</svg>
