<svg width="40" height="25" viewBox="0 0 40 25" fill="none" xmlns="http://www.w3.org/2000/svg">
<g clip-path="url(#clip0_1_6066)">
<path opacity="0.07" d="M36.8402 0H3.15594C1.36647 0 -0.00195312 1.35417 -0.00195312 3.125V21.875C-0.00195312 23.6458 1.47173 25 3.15594 25H36.8402C38.6296 25 39.998 23.6458 39.998 21.875V3.125C39.998 1.35417 38.5244 0 36.8402 0Z" fill="#262322"/>
<path d="M36.8403 1.04199C37.9981 1.04199 38.9455 1.97949 38.9455 3.12533V21.8753C38.9455 23.0212 37.9981 23.9587 36.8403 23.9587H3.15604C1.99815 23.9587 1.05078 23.0212 1.05078 21.8753V3.12533C1.05078 1.97949 1.99815 1.04199 3.15604 1.04199H36.8403Z" fill="white"/>
<path d="M25.1555 8.64554C25.3661 7.60387 25.1555 6.87469 24.5239 6.24969C23.8924 5.52051 22.7345 5.20801 21.2608 5.20801H16.9449C16.6291 5.20801 16.4186 5.41634 16.3133 5.72885L14.7344 16.2498C14.7344 16.4581 14.8396 16.6665 15.0502 16.6665H17.8923L18.3134 13.1248L20.2081 10.8331L25.1555 8.64554Z" fill="#003087"/>
<path d="M25.1569 8.64648L24.9464 8.85482C24.4201 11.7715 22.6306 12.8132 20.1043 12.8132H18.9464C18.6306 12.8132 18.42 13.0215 18.3148 13.334L17.6832 17.3966L17.4727 18.4383C17.4727 18.6466 17.5779 18.8549 17.7884 18.8549H19.999C20.3148 18.8549 20.5253 18.6466 20.5253 18.4383V18.3341L20.9464 15.8341V15.7299C20.9464 15.5216 21.2622 15.3132 21.4727 15.3132H21.7885C23.999 15.3132 25.6833 14.4799 26.1043 11.9799C26.3148 10.9382 26.2096 10.1048 25.6833 9.47983C25.578 8.95899 25.3675 8.75065 25.1569 8.64648Z" fill="#3086C8"/>
<path d="M24.5231 8.4375C24.4178 8.33334 24.3126 8.33334 24.2073 8.33334C24.102 8.33334 23.9968 8.33334 23.8915 8.22917C23.5757 8.125 23.1547 8.125 22.7336 8.125H19.5757C19.4704 8.125 19.3651 8.125 19.3651 8.22917C19.1546 8.33334 19.0494 8.4375 19.0494 8.64584L18.3125 13.2292V13.3334C18.3125 13.0209 18.6283 12.8125 18.9441 12.8125H20.3125C22.9441 12.8125 24.6284 11.7709 25.1547 8.85417V8.64584C25.0494 8.54167 24.8389 8.4375 24.6284 8.4375H24.5231Z" fill="#012169"/>
</g>
<defs>
<clipPath id="clip0_1_6066">
<rect width="40" height="25" fill="white" transform="translate(-0.00195312)"/>
</clipPath>
</defs>
</svg>
