<svg width="45" height="44" viewBox="0 0 45 44" fill="none" xmlns="http://www.w3.org/2000/svg">
<path d="M14.357 18.9588C12.5344 18.9588 10.9772 18.3146 9.68555 17.0262C8.39388 15.7377 7.74805 14.1822 7.74805 12.3595C7.74805 10.5368 8.39514 8.97966 9.68934 7.68799C10.9835 6.39632 12.546 5.75049 14.3768 5.75049C16.2076 5.75049 17.7619 6.39759 19.0397 7.69178C20.3175 8.98598 20.9564 10.5485 20.9564 12.3793C20.9564 14.2101 20.3122 15.7644 19.0237 17.0422C17.7353 18.3199 16.1797 18.9588 14.357 18.9588ZM14.3828 15.0422C15.1263 15.0422 15.755 14.7819 16.2689 14.2615C16.7828 13.7411 17.0397 13.1091 17.0397 12.3657C17.0397 11.6222 16.7795 10.9935 16.2591 10.4797C15.7386 9.96577 15.1067 9.70882 14.3633 9.70882C13.6198 9.70882 12.9911 9.96903 12.4772 10.4894C11.9633 11.0099 11.7064 11.6418 11.7064 12.3853C11.7064 13.1288 11.9666 13.7574 12.487 14.2713C13.0075 14.7852 13.6394 15.0422 14.3828 15.0422ZM31.6193 36.2505C29.7885 36.2505 28.2342 35.6034 26.9564 34.3092C25.6786 33.015 25.0397 31.4525 25.0397 29.6217C25.0397 27.7909 25.6839 26.2366 26.9724 24.9588C28.2608 23.681 29.8164 23.0422 31.639 23.0422C33.4617 23.0422 35.0189 23.6864 36.3106 24.9748C37.6022 26.2633 38.2481 27.8188 38.2481 29.6415C38.2481 31.4642 37.601 33.0213 36.3068 34.313C35.0126 35.6047 33.4501 36.2505 31.6193 36.2505ZM31.6328 32.2922C32.3763 32.2922 33.005 32.0319 33.5189 31.5115C34.0328 30.9911 34.2897 30.3591 34.2897 29.6157C34.2897 28.8722 34.0295 28.2435 33.5091 27.7297C32.9886 27.2158 32.3567 26.9588 31.6133 26.9588C30.8698 26.9588 30.2411 27.219 29.7272 27.7394C29.2133 28.2599 28.9564 28.8918 28.9564 29.6353C28.9564 30.3788 29.2166 31.0074 29.737 31.5213C30.2575 32.0352 30.8894 32.2922 31.6328 32.2922ZM11.4147 35.3338L8.66471 32.5838L34.5814 6.66716L37.3314 9.41716L11.4147 35.3338Z" fill="#4B5563"/>
</svg>
