<svg width="17" height="17" viewBox="0 0 17 17" fill="none" xmlns="http://www.w3.org/2000/svg">
<path d="M3.16683 11.2213V3.22133H1.8335V1.888H3.8335C4.01031 1.888 4.17988 1.95824 4.3049 2.08326C4.42992 2.20829 4.50016 2.37786 4.50016 2.55467V10.5547H12.7922L14.1255 5.22133H5.8335V3.888H14.9802C15.0815 3.888 15.1815 3.91111 15.2726 3.95556C15.3636 4.00001 15.4434 4.06463 15.5057 4.14452C15.5681 4.22442 15.6114 4.31747 15.6324 4.41661C15.6533 4.51575 15.6515 4.61837 15.6268 4.71667L13.9602 11.3833C13.924 11.5275 13.8408 11.6555 13.7236 11.7469C13.6065 11.8383 13.4621 11.888 13.3135 11.888H3.8335C3.65669 11.888 3.48712 11.8178 3.36209 11.6927C3.23707 11.5677 3.16683 11.3981 3.16683 11.2213V11.2213ZM4.50016 15.888C4.14654 15.888 3.8074 15.7475 3.55735 15.4975C3.30731 15.2474 3.16683 14.9083 3.16683 14.5547C3.16683 14.201 3.30731 13.8619 3.55735 13.6119C3.8074 13.3618 4.14654 13.2213 4.50016 13.2213C4.85378 13.2213 5.19292 13.3618 5.44297 13.6119C5.69302 13.8619 5.8335 14.201 5.8335 14.5547C5.8335 14.9083 5.69302 15.2474 5.44297 15.4975C5.19292 15.7475 4.85378 15.888 4.50016 15.888ZM12.5002 15.888C12.1465 15.888 11.8074 15.7475 11.5574 15.4975C11.3073 15.2474 11.1668 14.9083 11.1668 14.5547C11.1668 14.201 11.3073 13.8619 11.5574 13.6119C11.8074 13.3618 12.1465 13.2213 12.5002 13.2213C12.8538 13.2213 13.1929 13.3618 13.443 13.6119C13.693 13.8619 13.8335 14.201 13.8335 14.5547C13.8335 14.9083 13.693 15.2474 13.443 15.4975C13.1929 15.7475 12.8538 15.888 12.5002 15.888Z" fill="white"/>
</svg>
