<svg width="38" height="38" viewBox="0 0 38 38" fill="none" xmlns="http://www.w3.org/2000/svg">
<path d="M37.1758 17.2958C37.9237 16.5668 38.1878 15.497 37.8652 14.5024C37.5418 13.5079 36.6994 12.798 35.6646 12.6473L26.4636 11.3104C26.0718 11.2533 25.7332 11.0076 25.5582 10.6522L21.4447 2.31566C20.9828 1.37897 20.0453 0.796875 19.0006 0.796875C17.9566 0.796875 17.0192 1.37897 16.5573 2.31566L12.4431 10.653C12.268 11.0083 11.9287 11.2541 11.5368 11.3112L2.33585 12.6481C1.30176 12.798 0.458673 13.5087 0.135285 14.5032C-0.187343 15.4977 0.0766943 16.5676 0.824672 17.2965L7.4819 23.7856C7.76572 24.0626 7.89584 24.4613 7.82888 24.8509L6.25835 34.0138C6.1191 34.8203 6.33064 35.6048 6.85263 36.2235C7.66376 37.1875 9.07982 37.4813 10.2121 36.8862L18.4406 32.5597C18.7845 32.3793 19.2175 32.3809 19.5606 32.5597L27.7899 36.8862C28.1902 37.097 28.617 37.2035 29.0576 37.2035C29.8619 37.2035 30.6243 36.8459 31.1486 36.2235C31.6713 35.6048 31.8821 34.8188 31.7429 34.0138L30.1716 24.8509C30.1046 24.4605 30.2347 24.0626 30.5185 23.7856L37.1758 17.2958Z" fill="#4B5563"/>
</svg>
