<svg width="44" height="44" viewBox="0 0 44 44" fill="none" xmlns="http://www.w3.org/2000/svg">
<path fill-rule="evenodd" clip-rule="evenodd" d="M22 4.125C12.1279 4.125 4.125 12.1279 4.125 22C4.125 31.8721 12.1279 39.875 22 39.875C22.7594 39.875 23.375 39.2594 23.375 38.5V33.0001C23.375 27.6841 27.6833 23.375 32.9988 23.375H38.5C39.2594 23.375 39.875 22.7594 39.875 22C39.875 12.1279 31.8721 4.125 22 4.125ZM22 10.1306C22.7594 10.1306 23.375 10.7462 23.375 11.5056V21.9638C23.386 22.3294 23.2519 22.6986 22.9729 22.9776L16.6129 29.3377C16.0759 29.8746 15.2053 29.8746 14.6684 29.3377C14.1314 28.8006 14.1314 27.9301 14.6684 27.3932L20.625 21.4364V11.5056C20.625 10.7462 21.2406 10.1306 22 10.1306Z" fill="#4B5563"/>
<path d="M38.5 27.3348L32.2112 33.5643C32.0048 33.7689 31.7596 33.9313 31.4898 34.0421C31.2201 34.1528 30.9309 34.2098 30.6389 34.2098C30.3468 34.2098 30.0576 34.1528 29.7879 34.0421C29.5181 33.9313 29.2731 33.7689 29.0667 33.5643L27.5 32.0013" stroke="#4B5563" stroke-width="2" stroke-linecap="round" stroke-linejoin="round"/>
</svg>
