<svg width="18" height="18" viewBox="0 0 18 18" fill="none" xmlns="http://www.w3.org/2000/svg">
<path d="M15.8178 4.77307C15.3053 4.99541 14.7633 5.14239 14.2087 5.20943C14.7938 4.85988 15.2323 4.30997 15.4428 3.66171C14.8929 3.98902 14.291 4.21964 13.6632 4.34352C13.2436 3.88846 12.6848 3.58554 12.0744 3.48229C11.4641 3.37903 10.8368 3.48127 10.2908 3.77297C9.74483 4.06467 9.31112 4.52934 9.0577 5.09409C8.80427 5.65885 8.74546 6.29174 8.89049 6.89352C7.77873 6.83729 6.69124 6.54781 5.69866 6.04388C4.70608 5.53996 3.83061 4.83286 3.12912 3.96852C2.88308 4.39818 2.7538 4.88477 2.75412 5.37989C2.75325 5.83969 2.86609 6.29258 3.08259 6.69823C3.2991 7.10387 3.61255 7.44969 3.99503 7.70489C3.55047 7.69279 3.11541 7.5735 2.72685 7.35716V7.39125C2.73018 8.0355 2.95594 8.65881 3.36593 9.15577C3.77592 9.65273 4.34498 9.99283 4.97685 10.1185C4.73362 10.1925 4.48108 10.2316 4.22685 10.2344C4.05087 10.2324 3.87532 10.2164 3.70185 10.1867C3.88179 10.7409 4.23 11.2252 4.69804 11.5723C5.16607 11.9193 5.73065 12.1119 6.31321 12.1231C5.32949 12.8971 4.11495 13.3196 2.86321 13.3231C2.63531 13.3238 2.40758 13.3102 2.1814 13.2822C3.45942 14.1073 4.94877 14.5454 6.47003 14.5435C7.51982 14.5544 8.56126 14.356 9.53352 13.9599C10.5058 13.5638 11.3894 12.978 12.1327 12.2366C12.876 11.4952 13.4641 10.6131 13.8627 9.64187C14.2613 8.67063 14.4623 7.6297 14.4541 6.57989C14.4541 6.46398 14.4541 6.34125 14.4541 6.21852C14.9891 5.81953 15.4506 5.33041 15.8178 4.77307Z" fill="#141517"/>
</svg>
