<svg width="40" height="25" viewBox="0 0 40 25" fill="none" xmlns="http://www.w3.org/2000/svg">
<g clip-path="url(#clip0_1_6062)">
<path opacity="0.07" d="M36.8402 0H3.15594C1.36647 0 -0.00195312 1.35417 -0.00195312 3.125V21.875C-0.00195312 23.6458 1.47173 25 3.15594 25H36.8402C38.6296 25 39.998 23.6458 39.998 21.875V3.125C39.998 1.35417 38.5244 0 36.8402 0Z" fill="#262322"/>
<path d="M36.8403 1.04199C37.9981 1.04199 38.9455 1.97949 38.9455 3.12533V21.8753C38.9455 23.0212 37.9981 23.9587 36.8403 23.9587H3.15604C1.99815 23.9587 1.05078 23.0212 1.05078 21.8753V3.12533C1.05078 1.97949 1.99815 1.04199 3.15604 1.04199H36.8403Z" fill="white"/>
<path d="M29.788 10.5205H29.4722C29.0512 11.5622 28.7354 12.083 28.4196 13.6455H30.4196C30.1038 12.083 30.1038 11.3538 29.788 10.5205ZM32.8407 16.6663H31.0512C30.9459 16.6663 30.9459 16.6663 30.8407 16.5622L30.6301 15.6247L30.5249 15.4163H27.9986C27.8933 15.4163 27.788 15.4163 27.788 15.6247L27.4722 16.5622C27.4722 16.6663 27.367 16.6663 27.367 16.6663H25.1565L25.367 16.1455L28.4196 9.06217C28.4196 8.54134 28.7354 8.33301 29.2617 8.33301H30.8407C30.9459 8.33301 31.0512 8.33301 31.0512 8.54134L32.5249 15.3122C32.6301 15.7288 32.7354 16.0413 32.7354 16.458C32.8407 16.5622 32.8407 16.5622 32.8407 16.6663ZM18.7354 16.3538L19.1565 14.4788C19.2617 14.4788 19.367 14.583 19.367 14.583C20.1038 14.8955 20.8407 15.1038 21.5775 14.9997C21.788 14.9997 22.1038 14.8955 22.3144 14.7913C22.8407 14.583 22.8407 14.0622 22.4196 13.6455C22.2091 13.4372 21.8933 13.333 21.5775 13.1247C21.1565 12.9163 20.7354 12.708 20.4196 12.3955C19.1565 11.3538 19.5775 9.89551 20.3144 9.16634C20.9459 8.74967 21.2617 8.33301 22.1038 8.33301C23.367 8.33301 24.7354 8.33301 25.367 8.54134H25.4722C25.367 9.16634 25.2617 9.68717 25.0512 10.3122C24.5249 10.1038 23.9986 9.89551 23.4722 9.89551C23.1565 9.89551 22.8407 9.89551 22.5249 9.99967C22.3144 9.99967 22.2091 10.1038 22.1038 10.208C21.8933 10.4163 21.8933 10.7288 22.1038 10.9372L22.6301 11.3538C23.0512 11.5622 23.4722 11.7705 23.788 11.9788C24.3144 12.2913 24.8407 12.8122 24.9459 13.4372C25.1565 14.3747 24.8407 15.208 23.9986 15.833C23.4722 16.2497 23.2617 16.458 22.5249 16.458C21.0512 16.458 19.8933 16.5622 18.9459 16.2497C18.8407 16.458 18.8407 16.458 18.7354 16.3538ZM15.0512 16.6663C15.1565 15.9372 15.1565 15.9372 15.2617 15.6247C15.788 13.333 16.3144 10.9372 16.7354 8.64551C16.8407 8.43717 16.8407 8.33301 17.0512 8.33301H18.9459C18.7354 9.58301 18.5249 10.5205 18.2091 11.6663C17.8933 13.2288 17.5775 14.7913 17.1565 16.3538C17.1565 16.5622 17.0512 16.5622 16.8407 16.5622L15.0512 16.6663ZM5.26172 8.54134C5.26172 8.43717 5.47225 8.33301 5.57751 8.33301H9.15646C9.68277 8.33301 10.1038 8.64551 10.2091 9.16634L11.1565 13.7497C11.1565 13.8538 11.1565 13.8538 11.2617 13.958C11.2617 13.8538 11.367 13.8538 11.367 13.8538L13.5775 8.54134C13.4722 8.43717 13.5775 8.33301 13.6828 8.33301H15.8933C15.8933 8.43717 15.8933 8.43717 15.788 8.54134L12.5249 16.1455C12.4196 16.3538 12.4196 16.458 12.3144 16.5622C12.2091 16.6663 11.9986 16.5622 11.788 16.5622H10.2091C10.1038 16.5622 9.99856 16.5622 9.99856 16.3538L8.31435 9.89551C8.10382 9.68717 7.78803 9.37467 7.36698 9.27051C6.7354 8.95801 5.57751 8.74967 5.36698 8.74967L5.26172 8.54134Z" fill="#142688"/>
</g>
<defs>
<clipPath id="clip0_1_6062">
<rect width="40" height="25" fill="white" transform="translate(-0.00195312)"/>
</clipPath>
</defs>
</svg>
