<svg width="18" height="18" viewBox="0 0 18 18" fill="none" xmlns="http://www.w3.org/2000/svg">
<path d="M16.4999 7.43947C16.5336 6.46355 16.3202 5.49494 15.8795 4.62356C15.5804 4.26601 15.1654 4.02473 14.7067 3.94174C12.8096 3.7696 10.9046 3.69904 8.99991 3.73038C7.10217 3.69762 5.20403 3.7659 3.31354 3.93492C2.93978 4.00291 2.5939 4.17822 2.31809 4.43947C1.70445 5.00538 1.63627 5.97356 1.56809 6.79174C1.46917 8.26281 1.46917 9.73886 1.56809 11.2099C1.58781 11.6704 1.65638 12.1275 1.77263 12.5736C1.85484 12.9179 2.02117 13.2365 2.25673 13.5008C2.53441 13.7759 2.88835 13.9612 3.27263 14.0326C4.74258 14.2141 6.22369 14.2893 7.70445 14.2577C10.0908 14.2917 12.184 14.2577 14.659 14.0667C15.0527 13.9997 15.4166 13.8142 15.7022 13.5349C15.8931 13.344 16.0356 13.1102 16.1181 12.8531C16.3619 12.1049 16.4817 11.3218 16.4726 10.5349C16.4999 10.1531 16.4999 7.84856 16.4999 7.43947ZM7.459 10.944V6.72356L11.4954 8.84401C10.3635 9.47129 8.87036 10.1804 7.459 10.944Z" fill="#141517"/>
</svg>
